<?xml version="1.0" standalone="no"?>
<!DOCTYPE svg PUBLIC "-//W3C//DTD SVG 20010904//EN"
 "http://www.w3.org/TR/2001/REC-SVG-20010904/DTD/svg10.dtd">
<svg version="1.0" xmlns="http://www.w3.org/2000/svg"
 width="283.000000pt" height="269.000000pt" viewBox="0 0 283.000000 269.000000"
 preserveAspectRatio="xMidYMid meet">
<metadata>
Created by potrace 1.10, written by Peter Selinger 2001-2011
</metadata>
<g transform="translate(0.000000,269.000000) scale(0.100000,-0.100000)"
fill="#000000" stroke="none">
<path d="M1224 2558 c-18 -15 -24 -28 -21 -44 3 -20 1 -21 -20 -13 -21 8 -23
7 -13 -11 5 -10 15 -22 20 -25 22 -14 77 -105 108 -180 26 -64 32 -72 27 -40
-11 70 -46 178 -77 238 -17 31 -28 60 -25 63 12 12 96 -7 121 -27 15 -12 33
-34 42 -51 21 -40 44 -166 44 -239 0 -92 16 -69 24 33 6 98 6 238 -1 201 -6
-33 -19 -28 -45 19 -28 51 -60 74 -116 87 -36 8 -46 6 -68 -11z"/>
<path d="M1573 2494 c-18 -9 -33 -20 -33 -25 0 -5 -7 -9 -15 -9 -8 0 -15 5
-15 12 0 8 -3 9 -10 2 -6 -6 -10 -43 -8 -85 l3 -74 18 53 c26 72 67 112 118
112 39 0 126 -37 162 -68 21 -18 22 -4 2 24 -20 29 -115 74 -156 74 -19 0 -49
-8 -66 -16z"/>
<path d="M1050 2479 c-35 -7 -70 -40 -70 -65 0 -7 16 -26 36 -41 64 -49 115
-96 126 -116 10 -19 8 -19 -43 -13 -71 9 -144 -6 -175 -35 -37 -34 -29 -39 23
-13 50 26 131 32 179 14 14 -6 53 -37 85 -70 33 -34 59 -58 59 -54 0 3 -19 42
-42 86 -50 96 -132 188 -193 218 -25 12 -45 25 -45 30 0 10 74 40 100 40 25 0
83 -51 112 -97 12 -20 24 -31 26 -25 4 12 -32 77 -66 120 -20 26 -59 33 -112
21z"/>
<path d="M1300 2453 c0 -5 7 -26 15 -48 14 -39 14 -39 15 -10 l1 30 26 -30
c25 -28 25 -28 19 -5 -11 37 -76 91 -76 63z"/>
<path d="M1713 2361 c-77 -56 -159 -179 -178 -268 l-6 -28 22 29 c33 41 85 88
122 109 54 29 163 18 211 -22 18 -15 19 -15 13 2 -4 10 -7 20 -7 23 0 2 -15
11 -32 21 -45 23 -161 23 -205 0 -32 -17 -32 -17 -25 3 11 29 80 98 116 117
17 9 36 22 44 29 27 27 -33 15 -75 -15z"/>
<path d="M1556 2333 c-27 -41 -56 -116 -55 -142 0 -17 48 76 49 95 0 15 49 59
56 51 4 -4 1 -15 -7 -24 -7 -10 1 -5 19 11 41 38 40 46 -3 46 -29 0 -39 -6
-59 -37z"/>
<path d="M1180 2312 c0 -5 9 -17 19 -26 21 -19 86 -146 96 -189 4 -15 11 -27
16 -27 5 0 6 12 3 26 -4 17 -3 25 3 21 7 -4 7 9 0 39 -6 26 -14 40 -18 33 -5
-8 -13 2 -24 27 -23 55 -95 128 -95 96z"/>
<path d="M1465 2152 c-4 -35 -5 -66 -2 -68 7 -7 20 101 15 118 -3 7 -8 -15
-13 -50z"/>
<path d="M932 2151 c-20 -12 8 -21 67 -21 81 0 149 -26 204 -80 48 -45 50 -49
38 -77 -9 -23 -9 -43 4 -101 8 -41 20 -82 25 -92 6 -10 10 -21 10 -23 0 -2
-34 -30 -75 -62 -91 -69 -155 -146 -155 -186 0 -15 5 -31 10 -34 6 -3 10 -31
10 -61 0 -31 7 -69 16 -86 23 -45 15 -204 -15 -271 -11 -27 -21 -55 -21 -63 0
-9 22 -39 48 -67 57 -61 105 -130 132 -190 39 -85 21 -89 -45 -9 -26 31 -66
77 -89 102 -23 25 -61 68 -85 97 l-43 52 20 28 c21 29 41 93 48 152 3 19 8 39
11 45 4 7 1 6 -8 -1 -8 -7 -28 -53 -44 -103 -16 -49 -32 -90 -36 -90 -3 0 -12
6 -18 14 -8 10 -3 31 23 87 43 95 52 124 36 114 -14 -9 -11 30 9 110 8 35 8
38 -4 22 -11 -15 -80 -197 -101 -266 -3 -11 -7 -11 -19 -1 -17 14 -20 41 -7
55 15 17 114 256 109 262 -3 2 -11 -5 -17 -17 -6 -12 -14 -19 -17 -16 -3 3 39
99 95 213 103 215 119 253 105 253 -9 0 -17 -16 -229 -428 l-146 -282 80 -88
c43 -48 90 -100 104 -117 14 -16 102 -116 194 -220 93 -105 187 -212 209 -237
l40 -47 185 211 c102 117 243 276 313 355 l128 144 -85 167 c-112 221 -247
473 -268 503 l-18 24 10 -28 c14 -40 44 -105 126 -271 90 -182 97 -203 55
-156 -17 19 -31 31 -31 27 0 -4 28 -69 62 -144 48 -104 59 -139 51 -152 -13
-21 -27 -19 -31 5 -6 30 -104 276 -108 271 -5 -4 21 -122 33 -154 7 -17 6 -17
-11 0 -34 34 -32 24 26 -102 29 -64 35 -87 27 -97 -19 -23 -26 -16 -39 34 -15
61 -58 154 -59 127 -1 -39 28 -139 48 -166 29 -39 29 -43 1 -75 -14 -16 -54
-63 -90 -104 -36 -41 -67 -77 -70 -80 -3 -3 -20 -23 -39 -45 -19 -22 -45 -48
-57 -57 -22 -18 -22 -18 -15 15 17 72 77 170 161 260 52 57 52 60 23 123 -23
51 -26 72 -26 150 1 53 7 109 16 135 9 25 13 61 10 82 -3 23 1 44 11 58 11 16
12 28 5 48 -13 32 -107 130 -176 182 l-53 39 14 33 c34 80 44 164 24 198 -12
19 -8 25 39 68 58 52 131 81 206 81 52 0 79 8 71 21 -8 14 -115 10 -171 -6
-62 -18 -127 -65 -148 -106 -13 -25 -19 -28 -30 -19 -21 17 -174 25 -216 11
-34 -11 -36 -10 -89 42 -39 37 -71 58 -109 70 -56 18 -157 23 -179 8z m605
-185 c4 -3 -1 -49 -11 -101 -13 -66 -22 -95 -32 -95 -18 0 -18 18 2 92 28 108
7 78 -42 -61 -3 -11 -8 -10 -24 4 -18 16 -21 16 -44 2 l-24 -16 -28 75 c-15
41 -28 73 -30 71 -2 -1 3 -30 11 -62 18 -76 19 -105 2 -105 -13 0 -55 185 -44
196 18 19 246 19 264 0z m-73 -227 c82 -42 140 -85 209 -157 51 -54 74 -102
48 -102 -6 0 -34 25 -63 56 -53 56 -119 109 -190 153 -52 31 -40 2 13 -35 22
-15 83 -72 135 -127 76 -79 95 -104 90 -121 -3 -11 -6 -32 -6 -46 0 -23 -4
-25 -44 -26 -53 -1 -121 -33 -177 -82 l-42 -38 11 -79 c11 -79 11 -80 -16
-108 l-26 -27 -29 28 c-27 27 -28 32 -18 68 6 21 11 58 11 81 0 36 -5 46 -39
75 -56 48 -128 81 -178 82 -41 1 -43 2 -43 33 0 17 -2 37 -5 45 -7 17 82 119
179 205 42 38 72 69 66 71 -22 8 -199 -133 -235 -187 -21 -32 -35 -32 -35 0 0
24 94 126 162 176 42 30 146 92 157 93 2 0 31 -14 65 -31z m-293 -469 c11 -52
59 -90 112 -90 l43 0 18 -254 18 -254 -23 -31 c-27 -37 -34 -33 -43 17 -11 73
-83 198 -157 275 -45 47 -65 75 -59 81 7 7 24 -4 50 -29 47 -46 53 -35 10 17
l-31 37 17 57 c11 40 15 81 12 136 -4 67 -2 78 11 76 8 -2 18 -19 22 -38z
m502 -39 c-4 -59 -1 -92 12 -135 18 -56 18 -57 -2 -79 -11 -12 -26 -33 -33
-47 -10 -20 -4 -17 29 15 27 25 44 36 51 29 6 -6 -14 -34 -58 -80 -73 -76
-130 -173 -157 -269 l-18 -59 -23 29 c-28 35 -28 22 -6 319 l17 228 49 2 c41
2 53 7 77 34 16 18 29 43 29 55 0 26 7 37 26 37 9 0 11 -20 7 -79z m-73 39 c0
-19 -40 -50 -65 -50 -22 0 -24 2 -13 19 19 31 78 54 78 31z m-333 -25 c24 -21
25 -24 9 -25 -20 0 -56 27 -56 42 0 15 18 8 47 -17z m693 -55 c11 -21 20 -45
19 -52 0 -10 -49 78 -49 89 0 12 13 -3 30 -37z m-536 -378 l-7 -158 37 -36
c20 -19 36 -39 36 -44 0 -14 -71 -84 -85 -84 -7 0 -29 20 -49 45 l-37 45 37
37 37 37 -7 158 -7 158 26 0 26 0 -7 -158z"/>
<path d="M1420 1894 c-16 -49 -9 -50 17 -3 16 28 18 39 8 39 -7 0 -19 -16 -25
-36z"/>
<path d="M1380 1579 c-6 -22 -9 -53 -5 -68 4 -21 -1 -33 -25 -56 -30 -29 -38
-45 -21 -45 5 0 19 16 32 36 12 20 24 31 28 26 3 -6 6 26 6 69 0 43 -1 79 -2
79 -1 0 -7 -18 -13 -41z"/>
<path d="M1475 1607 c3 -11 8 -29 11 -42 3 -13 -5 -54 -20 -95 -15 -40 -24
-75 -22 -78 9 -8 56 123 55 153 0 11 -7 34 -15 50 -8 17 -12 22 -9 12z"/>
<path d="M1270 1475 c-25 -26 -38 -45 -30 -45 13 0 52 41 74 78 13 22 1 13
-44 -33z"/>
<path d="M1200 1380 c0 -5 9 -10 21 -10 30 0 136 -59 162 -89 l21 -26 42 41
c23 22 64 49 91 58 79 29 80 30 47 33 -32 4 -108 -24 -156 -58 l-29 -21 -22
20 c-47 44 -177 82 -177 52z"/>
<path d="M1196 1119 c17 -64 25 -74 19 -23 l-5 39 11 -35 c26 -82 28 -85 22
-30 -8 72 8 57 24 -23 l12 -62 -5 68 c-6 86 11 81 20 -5 13 -114 26 -142 20
-43 -8 140 -9 143 -51 143 -19 0 -40 5 -46 11 -26 26 -34 11 -21 -40z"/>
<path d="M1245 843 c30 -51 48 -92 70 -158 5 -16 8 -17 15 -5 6 8 10 29 10 45
0 21 -3 26 -9 16 -7 -10 -15 -1 -30 35 -25 56 -70 124 -82 124 -4 0 7 -26 26
-57z"/>
<path d="M1604 1165 c-10 -8 -35 -15 -56 -15 -41 0 -39 4 -54 -175 -9 -108 2
-92 17 25 14 116 32 155 25 55 -4 -47 -3 -62 3 -45 5 14 10 39 10 55 1 17 6
37 12 45 7 11 9 1 7 -37 -4 -65 7 -60 18 9 7 50 8 51 12 18 4 -34 5 -34 17 20
7 30 12 56 11 57 -1 2 -11 -4 -22 -12z"/>
<path d="M1568 873 c-15 -16 -38 -53 -52 -83 l-26 -55 -1 40 c-1 33 -3 29 -11
-24 -13 -90 3 -95 36 -12 15 39 38 85 50 103 45 68 46 75 4 31z"/>
<path d="M1067 1788 c-30 -46 -75 -117 -99 -158 -188 -313 -281 -478 -285
-505 -5 -28 4 -42 73 -126 43 -52 91 -107 105 -124 15 -16 40 -47 56 -67 41
-54 93 -116 228 -271 66 -77 140 -163 165 -193 59 -71 84 -88 108 -75 11 6 46
40 78 77 33 37 64 72 69 78 13 14 106 125 125 149 8 11 41 49 72 86 223 261
359 427 364 447 4 16 -3 40 -21 71 -62 108 -171 294 -222 376 -29 49 -53 91
-53 93 0 9 -133 204 -137 200 -5 -5 62 -126 254 -458 85 -148 153 -272 151
-277 -1 -6 -149 -182 -328 -392 -179 -211 -334 -396 -344 -412 l-19 -29 -21
27 c-20 29 -317 382 -544 648 -70 82 -128 153 -130 158 -2 4 46 93 106 196
231 396 322 563 308 563 -2 0 -28 -37 -59 -82z"/>
<path d="M635 1009 c-99 -54 -147 -101 -136 -132 7 -19 103 -96 261 -209 25
-18 56 -42 70 -55 14 -13 28 -23 32 -23 3 0 13 -6 20 -13 21 -21 285 -207 304
-214 30 -11 7 14 -64 70 -76 60 -542 404 -584 432 -16 9 -28 21 -28 25 0 11
146 104 157 100 4 -2 91 -96 192 -209 271 -303 351 -389 368 -395 13 -5 13 -2
-1 19 -26 39 -36 50 -236 274 -213 237 -312 341 -326 341 -5 0 -18 -6 -29 -11z"/>
<path d="M2019 898 c-115 -127 -245 -271 -306 -338 -22 -25 -56 -62 -75 -83
-19 -21 -42 -52 -52 -68 -43 -72 31 1 286 285 149 165 273 303 275 305 2 3 13
-5 26 -16 12 -12 46 -35 75 -53 28 -17 52 -35 52 -40 0 -4 -17 -19 -38 -33
-68 -44 -545 -398 -605 -449 -32 -26 -53 -48 -46 -48 14 0 152 92 259 173 36
27 75 56 87 65 12 9 95 71 184 137 88 66 165 128 170 137 15 28 -5 53 -73 98
-94 61 -99 59 -219 -72z"/>
<path d="M618 918 c-21 -12 -38 -24 -37 -27 0 -4 53 -43 117 -88 64 -46 140
-100 167 -120 l50 -38 -30 36 c-65 79 -218 254 -224 256 -3 1 -23 -7 -43 -19z
m132 -115 c0 -15 -50 13 -100 56 -34 30 -35 31 -15 46 19 15 23 13 67 -37 27
-29 48 -58 48 -65z"/>
<path d="M2050 828 c-171 -199 -170 -195 -20 -83 53 38 119 86 147 105 29 19
53 37 53 40 0 5 -76 50 -82 50 -2 -1 -46 -51 -98 -112z m140 67 c0 -17 -114
-105 -135 -105 -10 0 12 34 54 82 30 34 46 45 61 41 11 -3 20 -11 20 -18z"/>
<path d="M365 870 c7 -11 395 -274 533 -361 153 -97 147 -64 -7 38 -47 31
-180 119 -294 195 -184 122 -252 160 -232 128z"/>
<path d="M2300 801 c-63 -43 -191 -128 -283 -190 -164 -108 -233 -161 -211
-161 23 0 605 380 633 414 33 39 -30 11 -139 -63z"/>
<path d="M2458 810 c-10 -36 -22 -83 -28 -105 l-10 -40 -232 -90 c-244 -94
-375 -153 -345 -154 22 -1 233 77 402 148 11 5 56 23 100 41 43 18 85 39 92
48 18 25 45 144 41 183 -3 31 -5 28 -20 -31z"/>
<path d="M328 849 c-5 -16 19 -132 36 -174 13 -31 27 -38 283 -139 277 -109
391 -145 283 -88 -30 16 -163 71 -295 122 -132 52 -241 95 -243 96 -2 1 -12
42 -23 90 -19 86 -33 118 -41 93z"/>
<path d="M414 740 c12 -40 16 -43 102 -80 49 -21 112 -47 139 -59 28 -12 46
-18 40 -13 -10 9 -274 184 -287 190 -3 2 -1 -16 6 -38z"/>
<path d="M2265 690 c-71 -49 -137 -93 -145 -99 -15 -10 5 -3 174 69 82 35 90
41 102 76 8 22 14 40 14 42 0 8 -29 -10 -145 -88z"/>
</g>
</svg>
